{
  "accessors": [
    {
      "bufferView": 2,
      "componentType": 5126,
      "count": 1596,
      "max": [
        47.80929946899414,
        18.383499145507813,
        97.54750061035156
      ],
      "min": [
        -48.11349868774414,
        -23.34779930114746,
        -0.03782200068235397
      ],
      "type": "VEC3"
    },
    {
      "bufferView": 2,
      "byteOffset": 19152,
      "componentType": 5126,
      "count": 1596,
      "max": [
        0.9999590516090393,
        0.9999824166297913,
        0.9996953010559082
      ],
      "min": [
        -0.999961256980896,
        -1.0,
        -1.0
      ],
      "type": "VEC3"
    },
    {
      "bufferView": 1,
      "componentType": 5126,
      "count": 1596,
      "max": [
        1.0,
        0.9981080293655396
      ],
      "min": [
        0.0,
        0.0061039999127388
      ],
      "type": "VEC2"
    },
    {
      "bufferView": 0,
      "componentType": 5125,
      "count": 6252,
      "type": "SCALAR"
    },
    {
      "bufferView": 2,
      "byteOffset": 38304,
      "componentType": 5126,
      "count": 290,
      "max": [
        28.319900512695313,
        31.903400421142578,
        149.9810028076172
      ],
      "min": [
        -28.305099487304688,
        -36.7932014465332,
        106.11000061035156
      ],
      "type": "VEC3"
    },
    {
      "bufferView": 2,
      "byteOffset": 41784,
      "componentType": 5126,
      "count": 290,
      "max": [
        0.9921571016311646,
        0.9895951747894287,
        0.989961564540863
      ],
      "min": [
        -0.9922077655792236,
        -0.9995597004890442,
        -0.9915211200714111
      ],
      "type": "VEC3"
    },
    {
      "bufferView": 1,
      "byteOffset": 12768,
      "componentType": 5126,
      "count": 290,
      "max": [
        0.9849849939346313,
        1.0069600343704224
      ],
      "min": [
        0.012206999585032463,
        0.009460000321269035
      ],
      "type": "VEC2"
    },
    {
      "bufferView": 0,
      "byteOffset": 25008,
      "componentType": 5125,
      "count": 1254,
      "type": "SCALAR"
    },
    {
      "bufferView": 2,
      "byteOffset": 45264,
      "componentType": 5126,
      "count": 84,
      "max": [
        15.278900146484375,
        -16.250699996948242,
        120.57099914550781
      ],
      "min": [
        -15.275699615478516,
        -22.500999450683594,
        102.75199890136719
      ],
      "type": "VEC3"
    },
    {
      "bufferView": 2,
      "byteOffset": 46272,
      "componentType": 5126,
      "count": 84,
      "max": [
        0.9057260751724243,
        -0.13292574882507324,
        0.7503416538238525
      ],
      "min": [
        -0.9057758450508118,
        -0.9932708144187927,
        -0.5302219986915588
      ],
      "type": "VEC3"
    },
    {
      "bufferView": 1,
      "byteOffset": 15088,
      "componentType": 5126,
      "count": 84,
      "max": [
        0.8790889978408813,
        0.9978029727935791
      ],
      "min": [
        0.11700399965047836,
        0.0047610001638531685
      ],
      "type": "VEC2"
    },
    {
      "bufferView": 0,
      "byteOffset": 30024,
      "componentType": 5125,
      "count": 318,
      "type": "SCALAR"
    },
    {
      "bufferView": 2,
      "byteOffset": 47280,
      "componentType": 5126,
      "count": 756,
      "max": [
        21.9906005859375,
        10.650099754333496,
        127.38999938964844
      ],
      "min": [
        -21.986000061035156,
        -38.89580154418945,
        83.23519897460938
      ],
      "type": "VEC3"
    },
    {
      "bufferView": 2,
      "byteOffset": 56352,
      "componentType": 5126,
      "count": 756,
      "max": [
        0.9999556541442871,
        0.9749489426612854,
        0.9999083280563354
      ],
      "min": [
        -0.9999513626098633,
        -0.9999858140945435,
        -0.9999120831489563
      ],
      "type": "VEC3"
    },
    {
      "bufferView": 1,
      "byteOffset": 15760,
      "componentType": 5126,
      "count": 756,
      "max": [
        0.9927979707717896,
        0.9979860186576843
      ],
      "min": [
        0.0050050001591444016,
        0.0029909999575465918
      ],
      "type": "VEC2"
    },
    {
      "bufferView": 0,
      "byteOffset": 31296,
      "componentType": 5125,
      "count": 3162,
      "type": "SCALAR"
    },
    {
      "bufferView": 2,
      "byteOffset": 65424,
      "componentType": 5126,
      "count": 455,
      "max": [
        31.041900634765625,
        24.90559959411621,
        127.26799774169922
      ],
      "min": [
        -31.028499603271484,
        -12.370400428771973,
        88.22329711914063
      ],
      "type": "VEC3"
    },
    {
      "bufferView": 2,
      "byteOffset": 70884,
      "componentType": 5126,
      "count": 455,
      "max": [
        0.9993854761123657,
        0.9953610897064209,
        0.9993436336517334
      ],
      "min": [
        -0.9993986487388611,
        -0.971587061882019,
        -0.9942542910575867
      ],
      "type": "VEC3"
    },
    {
      "bufferView": 1,
      "byteOffset": 21808,
      "componentType": 5126,
      "count": 455,
      "max": [
        1.0,
        1.0
      ],
      "min": [
        0.0,
        0.01727299951016903
      ],
      "type": "VEC2"
    },
    {
      "bufferView": 0,
      "byteOffset": 43944,
      "componentType": 5125,
      "count": 1449,
      "type": "SCALAR"
    },
    {
      "bufferView": 2,
      "byteOffset": 76344,
      "componentType": 5126,
      "count": 42,
      "max": [
        12.694100379943848,
        -17.169099807739258,
        118.72699737548828
      ],
      "min": [
        -12.688699722290039,
        -20.578399658203125,
        105.11900329589844
      ],
      "type": "VEC3"
    },
    {
      "bufferView": 2,
      "byteOffset": 76848,
      "componentType": 5126,
      "count": 42,
      "max": [
        0.6959103941917419,
        -0.7124825716018677,
        0.17150971293449402
      ],
      "min": [
        -0.6961483359336853,
        -0.9933475255966187,
        -0.3294258713722229
      ],
      "type": "VEC3"
    },
    {
      "bufferView": 1,
      "byteOffset": 25448,
      "componentType": 5126,
      "count": 42,
      "max": [
        0.7492679953575134,
        0.9011229872703552
      ],
      "min": [
        0.2014160007238388,
        0.08819600194692612
      ],
      "type": "VEC2"
    },
    {
      "bufferView": 0,
      "byteOffset": 49740,
      "componentType": 5125,
      "count": 168,
      "type": "SCALAR"
    },
    {
      "bufferView": 2,
      "byteOffset": 77352,
      "componentType": 5126,
      "count": 928,
      "max": [
        76.49569702148438,
        15.673700332641602,
        91.5365982055664
      ],
      "min": [
        -76.49400329589844,
        -11.050800323486328,
        65.83660125732422
      ],
      "type": "VEC3"
    },
    {
      "bufferView": 2,
      "byteOffset": 88488,
      "componentType": 5126,
      "count": 928,
      "max": [
        0.9985466599464417,
        0.9997037053108215,
        0.9993996620178223
      ],
      "min": [
        -0.9985285997390747,
        -0.9984847903251648,
        -0.9999703764915466
      ],
      "type": "VEC3"
    },
    {
      "bufferView": 1,
      "byteOffset": 25784,
      "componentType": 5126,
      "count": 928,
      "max": [
        0.9807130098342896,
        0.9859009981155396
      ],
      "min": [
        0.08233600109815598,
        0.0025019999593496323
      ],
      "type": "VEC2"
    },
    {
      "bufferView": 0,
      "byteOffset": 50412,
      "componentType": 5125,
      "count": 2028,
      "type": "SCALAR"
    }
  ],
  "asset": {
    "extras": {
      "author": "DokigerElRojito (https://sketchfab.com/leodancordovaramos)",
      "license": "CC-BY-4.0 (http://creativecommons.org/licenses/by/4.0/)",
      "source": "https://sketchfab.com/3d-models/wii-super-mario-galaxy-red-star-mario-40911f2bd531459b8fb9c1985909cacb",
      "title": "Wii - Super Mario Galaxy - Red Star Mario"
    },
    "generator": "Sketchfab-15.36.0",
    "version": "2.0"
  },
  "bufferViews": [
    {
      "buffer": 0,
      "byteLength": 58524,
      "name": "floatBufferViews",
      "target": 34963
    },
    {
      "buffer": 0,
      "byteLength": 33208,
      "byteOffset": 58524,
      "byteStride": 8,
      "name": "floatBufferViews",
      "target": 34962
    },
    {
      "buffer": 0,
      "byteLength": 99624,
      "byteOffset": 91732,
      "byteStride": 12,
      "name": "floatBufferViews",
      "target": 34962
    }
  ],
  "buffers": [
    {
      "byteLength": 191356,
      "uri": "scene.bin"
    }
  ],
  "images": [
    {
      "uri": "textures/material_baseColor.png"
    },
    {
      "uri": "textures/material_1_baseColor.png"
    },
    {
      "uri": "textures/material_2_baseColor.png"
    },
    {
      "uri": "textures/material_3_baseColor.png"
    },
    {
      "uri": "textures/material_4_baseColor.png"
    },
    {
      "uri": "textures/material_5_baseColor.png"
    },
    {
      "uri": "textures/material_6_baseColor.png"
    }
  ],
  "materials": [
    {
      "doubleSided": true,
      "name": "material",
      "pbrMetallicRoughness": {
        "baseColorTexture": {
          "index": 0
        },
        "metallicFactor": 0.0
      }
    },
    {
      "doubleSided": true,
      "name": "material_1",
      "pbrMetallicRoughness": {
        "baseColorTexture": {
          "index": 1
        },
        "metallicFactor": 0.0
      }
    },
    {
      "doubleSided": true,
      "name": "material_2",
      "pbrMetallicRoughness": {
        "baseColorTexture": {
          "index": 2
        },
        "metallicFactor": 0.0
      }
    },
    {
      "doubleSided": true,
      "name": "material_3",
      "pbrMetallicRoughness": {
        "baseColorTexture": {
          "index": 3
        },
        "metallicFactor": 0.0
      }
    },
    {
      "doubleSided": true,
      "name": "material_4",
      "pbrMetallicRoughness": {
        "baseColorTexture": {
          "index": 4
        },
        "metallicFactor": 0.0
      }
    },
    {
      "doubleSided": true,
      "name": "material_5",
      "pbrMetallicRoughness": {
        "baseColorTexture": {
          "index": 5
        },
        "metallicFactor": 0.0
      }
    },
    {
      "doubleSided": true,
      "name": "material_6",
      "pbrMetallicRoughness": {
        "baseColorTexture": {
          "index": 6
        },
        "metallicFactor": 0.0
      }
    }
  ],
  "meshes": [
    {
      "name": "Object_0",
      "primitives": [
        {
          "attributes": {
            "NORMAL": 1,
            "POSITION": 0,
            "TEXCOORD_0": 2
          },
          "indices": 3,
          "material": 0,
          "mode": 4
        }
      ]
    },
    {
      "name": "Object_1",
      "primitives": [
        {
          "attributes": {
            "NORMAL": 5,
            "POSITION": 4,
            "TEXCOORD_0": 6
          },
          "indices": 7,
          "material": 1,
          "mode": 4
        }
      ]
    },
    {
      "name": "Object_2",
      "primitives": [
        {
          "attributes": {
            "NORMAL": 9,
            "POSITION": 8,
            "TEXCOORD_0": 10
          },
          "indices": 11,
          "material": 2,
          "mode": 4
        }
      ]
    },
    {
      "name": "Object_3",
      "primitives": [
        {
          "attributes": {
            "NORMAL": 13,
            "POSITION": 12,
            "TEXCOORD_0": 14
          },
          "indices": 15,
          "material": 4,
          "mode": 4
        }
      ]
    },
    {
      "name": "Object_4",
      "primitives": [
        {
          "attributes": {
            "NORMAL": 17,
            "POSITION": 16,
            "TEXCOORD_0": 18
          },
          "indices": 19,
          "material": 5,
          "mode": 4
        }
      ]
    },
    {
      "name": "Object_5",
      "primitives": [
        {
          "attributes": {
            "NORMAL": 21,
            "POSITION": 20,
            "TEXCOORD_0": 22
          },
          "indices": 23,
          "material": 3,
          "mode": 4
        }
      ]
    },
    {
      "name": "Object_6",
      "primitives": [
        {
          "attributes": {
            "NORMAL": 25,
            "POSITION": 24,
            "TEXCOORD_0": 26
          },
          "indices": 27,
          "material": 6,
          "mode": 4
        }
      ]
    }
  ],
  "nodes": [
    {
      "children": [
        1
      ],
      "matrix": [
        1.0,
        0.0,
        0.0,
        0.0,
        0.0,
        2.220446049250313e-16,
        -1.0,
        0.0,
        0.0,
        1.0,
        2.220446049250313e-16,
        0.0,
        0.0,
        0.0,
        0.0,
        1.0
      ],
      "name": "Sketchfab_model"
    },
    {
      "children": [
        2,
        3,
        4,
        5,
        6,
        7,
        8
      ],
      "name": "mario.obj.cleaner.materialmerger.gles"
    },
    {
      "mesh": 0,
      "name": "Object_2"
    },
    {
      "mesh": 1,
      "name": "Object_3"
    },
    {
      "mesh": 2,
      "name": "Object_4"
    },
    {
      "mesh": 3,
      "name": "Object_5"
    },
    {
      "mesh": 4,
      "name": "Object_6"
    },
    {
      "mesh": 5,
      "name": "Object_7"
    },
    {
      "mesh": 6,
      "name": "Object_8"
    }
  ],
  "samplers": [
    {
      "magFilter": 9729,
      "minFilter": 9987,
      "wrapS": 10497,
      "wrapT": 10497
    }
  ],
  "scene": 0,
  "scenes": [
    {
      "name": "Sketchfab_Scene",
      "nodes": [
        0
      ]
    }
  ],
  "textures": [
    {
      "sampler": 0,
      "source": 0
    },
    {
      "sampler": 0,
      "source": 1
    },
    {
      "sampler": 0,
      "source": 2
    },
    {
      "sampler": 0,
      "source": 3
    },
    {
      "sampler": 0,
      "source": 4
    },
    {
      "sampler": 0,
      "source": 5
    },
    {
      "sampler": 0,
      "source": 6
    }
  ]
}
